<svg xmlns="http://www.w3.org/2000/svg" viewBox="0 0 64 64"><path fill-rule="evenodd" clip-rule="evenodd" d="M38.6761 7.11377L11.0084 9.15125C8.77748 9.34446 8 10.7999 8 12.5448V42.8068C8 44.1664 8.48463 45.3284 9.65006 46.8816L16.154 55.32C17.2223 56.679 18.1932 56.9696 20.2331 56.8723L52.3634 54.9321C55.081 54.7391 55.8583 53.4772 55.8583 51.3434V17.2979C55.8583 16.195 55.4219 15.8764 54.1353 14.9372C54.0646 14.8855 53.9913 14.8319 53.9153 14.7763L45.0834 8.56883C42.9479 7.01757 42.0738 6.82236 38.6761 7.11377ZM20.9616 16.7395C18.3384 16.9166 17.7423 16.9569 16.2526 15.7467L12.4643 12.74C12.078 12.3512 12.2717 11.8661 13.2418 11.77L39.8412 9.82986C42.0733 9.63546 43.2379 10.4127 44.1121 11.0913L48.6743 14.3894C48.8686 14.486 49.3531 15.0673 48.7705 15.0673L21.3003 16.7167C21.1838 16.7245 21.0709 16.7321 20.9616 16.7395ZM17.9019 51.052V22.1485C17.9019 20.8879 18.2902 20.3055 19.4545 20.2076L51.0031 18.3654C52.0731 18.2684 52.5576 18.9478 52.5576 20.2076V48.9171C52.5576 50.179 52.363 51.2474 50.615 51.3434L20.4253 53.0903C18.6782 53.1864 17.9019 52.6054 17.9019 51.052ZM47.705 23.6991C47.8986 24.5729 47.705 25.4459 46.8298 25.544L45.375 25.8338V47.1723C44.1121 47.8511 42.9475 48.2391 41.977 48.2391C40.4232 48.2391 40.0342 47.7538 38.8703 46.2996L29.3556 31.3626V45.8146L32.3663 46.494C32.3663 46.494 32.3663 48.2391 29.9373 48.2391L23.2408 48.6275C23.0462 48.2391 23.2408 47.27 23.9201 47.0757L25.6675 46.5915V27.4833L23.2411 27.2889C23.0467 26.4152 23.5313 25.1553 24.8912 25.0574L32.0751 24.5732L41.977 39.7046V26.3189L39.4525 26.0291C39.2586 24.9608 40.0342 24.1851 41.005 24.089L47.705 23.6991Z" fill="#55534E" /></svg>